<svg xmlns="http://www.w3.org/2000/svg" xmlns:xlink="http://www.w3.org/1999/xlink" viewBox="0 0 1920 1080"><defs><style>.cls-1,.cls-10,.cls-11,.cls-12,.cls-13,.cls-14,.cls-16,.cls-17,.cls-25,.cls-37,.cls-38,.cls-40,.cls-9{fill:none;}.cls-2{clip-path:url(#clip-path);}.cls-3{fill:#131124;}.cls-4{fill:url(#linear-gradient);}.cls-5{fill:url(#linear-gradient-2);}.cls-6{fill:#4d1e97;}.cls-7{fill:url(#linear-gradient-3);}.cls-8{fill:#eb435b;}.cls-9{stroke:#bababa;stroke-width:0.92px;}.cls-37,.cls-9{stroke-linecap:round;}.cls-10,.cls-11,.cls-12,.cls-13,.cls-14,.cls-16,.cls-17,.cls-25,.cls-37,.cls-38,.cls-40,.cls-9{stroke-miterlimit:10;}.cls-10,.cls-17{stroke:#8d5afe;}.cls-10,.cls-11{stroke-width:2.76px;}.cls-11,.cls-16,.cls-38{stroke:#f57319;}.cls-12{stroke:#0ecb81;}.cls-12,.cls-13,.cls-14{stroke-width:1.38px;}.cls-13,.cls-14,.cls-37{stroke:#fff;}.cls-14{stroke-dasharray:5.54 5.54;}.cls-15{fill:#58ead3;}.cls-16,.cls-17{stroke-width:2.3px;}.cls-18{fill:#bababa;}.cls-19{fill:url(#linear-gradient-4);}.cls-20{isolation:isolate;}.cls-21{fill:url(#linear-gradient-5);}.cls-22{fill:#b5abb6;}.cls-23{fill:url(#linear-gradient-6);}.cls-24{fill:url(#linear-gradient-7);}.cls-25,.cls-40{stroke-width:5px;}.cls-25{stroke:url(#linear-gradient-8);}.cls-26{fill:url(#linear-gradient-9);}.cls-27{fill:#090b0c;}.cls-28{fill:url(#linear-gradient-10);}.cls-29{fill:#2e2d44;}.cls-30{fill:#703e03;}.cls-31{fill:#542d03;}.cls-32{fill:#eba298;}.cls-33{fill:#bcbdbe;}.cls-34{fill:url(#linear-gradient-11);}.cls-35{fill:url(#linear-gradient-12);}.cls-36{fill:url(#linear-gradient-13);}.cls-37{stroke-width:0.58px;}.cls-38{stroke-width:1.69px;}.cls-39{font-size:31px;}.cls-39,.cls-42,.cls-43{fill:#edeafd;}.cls-39,.cls-42{font-family:OpenSans-Bold, Open Sans;font-weight:700;}.cls-40{stroke:#edeafd;}.cls-41{fill:url(#linear-gradient-14);}.cls-42{font-size:41.78px;}</style><clipPath id="clip-path"><rect class="cls-1" width="1920" height="1080"/></clipPath><linearGradient id="linear-gradient" x1="521.11" y1="812.5" x2="1887.58" y2="918.71" gradientUnits="userSpaceOnUse"><stop offset="0" stop-color="#4d1e97"/><stop offset="0.78" stop-color="#131124"/></linearGradient><linearGradient id="linear-gradient-2" x1="50.74" y1="725.54" x2="1934.43" y2="725.54" xlink:href="#linear-gradient"/><linearGradient id="linear-gradient-3" x1="1472.61" y1="13.74" x2="1346.52" y2="712.07" gradientUnits="userSpaceOnUse"><stop offset="0.08" stop-color="#01011e"/><stop offset="0.28" stop-color="#070522"/><stop offset="0.35" stop-color="#0b0825"/><stop offset="0.44" stop-color="#130a33"/><stop offset="0.65" stop-color="#220e4d"/><stop offset="0.84" stop-color="#2c115c"/><stop offset="0.98" stop-color="#2f1262"/></linearGradient><linearGradient id="linear-gradient-4" x1="2005.77" y1="579.52" x2="34.7" y2="62.76" xlink:href="#linear-gradient"/><linearGradient id="linear-gradient-5" x1="440.03" y1="752.09" x2="621.31" y2="752.09" xlink:href="#linear-gradient"/><linearGradient id="linear-gradient-6" x1="257.84" y1="474.25" x2="789.96" y2="474.25" xlink:href="#linear-gradient"/><linearGradient id="linear-gradient-7" x1="579.22" y1="609.54" x2="444.61" y2="224.27" gradientUnits="userSpaceOnUse"><stop offset="0" stop-color="#a68bfa"/><stop offset="0.79" stop-color="#4d1e97"/></linearGradient><linearGradient id="linear-gradient-8" x1="971.15" y1="732.75" x2="1827.18" y2="732.75" xlink:href="#linear-gradient"/><linearGradient id="linear-gradient-9" x1="192.87" y1="1090.19" x2="125.06" y2="896.12" xlink:href="#linear-gradient"/><linearGradient id="linear-gradient-10" x1="683.86" y1="1152.04" x2="1300.53" y2="1152.04" gradientTransform="matrix(-1, 0, 0, 1, 1972.52, 0)" xlink:href="#linear-gradient"/><linearGradient id="linear-gradient-11" x1="596.9" y1="1111.74" x2="935.98" y2="1111.74" gradientTransform="matrix(-1, 0, 0, 1, 1972.52, 0)" xlink:href="#linear-gradient"/><linearGradient id="linear-gradient-12" x1="662.2" y1="873.67" x2="1352.58" y2="1711.12" gradientTransform="matrix(-1, 0, 0, 1, 1972.52, 0)" xlink:href="#linear-gradient"/><linearGradient id="linear-gradient-13" x1="667.28" y1="869.49" x2="1357.66" y2="1706.93" gradientTransform="matrix(-1, 0, 0, 1, 1972.52, 0)" xlink:href="#linear-gradient"/><linearGradient id="linear-gradient-14" x1="69.93" y1="665.71" x2="795.04" y2="665.71" gradientTransform="matrix(0.87, -0.5, 0, 1.15, -7.07, -300.05)" xlink:href="#linear-gradient-7"/></defs><g id="_166-Percentage_Decrease_Calculator" data-name="166-Percentage Decrease Calculator"><g class="cls-2"><rect class="cls-3" width="1920" height="1080"/><polygon class="cls-4" points="279.82 1087.51 992.58 670.87 1694.62 1080 1694.62 948.15 1016.37 557.23 313.34 900.62 275.25 1039.51 279.82 1087.51"/><polygon class="cls-5" points="50.74 932.63 277.62 1063.62 993.36 650.39 1705.89 1061.77 1934.43 929.83 1221.9 518.45 996.99 388.6 995.01 387.45 50.74 932.63"/><polygon class="cls-6" points="1844 943.58 954.33 429.93 954.33 -102.61 1844 411.04 1844 943.58"/><polygon class="cls-7" points="1844 943.58 954.33 429.93 954.33 -102.61 1844 411.04 1844 943.58"/><polygon class="cls-8" points="1828.99 715.54 1747.47 668.48 1747.47 640.22 1828.99 687.28 1828.99 715.54"/><polygon class="cls-9" points="1738.1 859.62 970.37 416.37 970.37 -32.35 1738.1 410.9 1738.1 859.62"/><line class="cls-9" x1="1689.89" y1="383.07" x2="1689.89" y2="831.79"/><line class="cls-9" x1="1571.97" y1="314.99" x2="1571.97" y2="763.71"/><line class="cls-9" x1="1454.06" y1="246.91" x2="1454.06" y2="695.63"/><line class="cls-9" x1="1336.14" y1="178.83" x2="1336.14" y2="627.56"/><line class="cls-9" x1="1218.23" y1="110.76" x2="1218.23" y2="559.48"/><line class="cls-9" x1="1100.31" y1="42.68" x2="1100.31" y2="491.4"/><line class="cls-9" x1="982.4" y1="-25.4" x2="982.4" y2="423.32"/><line class="cls-9" x1="970.36" y1="363.2" x2="1738.09" y2="806.45"/><line class="cls-9" x1="970.36" y1="309.32" x2="1738.09" y2="752.57"/><line class="cls-9" x1="970.36" y1="255.44" x2="1738.09" y2="698.69"/><line class="cls-9" x1="970.36" y1="147.68" x2="1738.09" y2="590.93"/><line class="cls-9" x1="970.36" y1="39.91" x2="1738.09" y2="483.16"/><line class="cls-9" x1="970.36" y1="-13.97" x2="1738.09" y2="429.28"/><path class="cls-10" d="M970.36,30.4S1119.31,130,1153.15,149.49s194.89,120.06,225.13,139,115.7,66.8,146.6,92.17,165.66,123.53,165.66,123.53"/><path class="cls-11" d="M970.36,56s171.26,104.15,204.13,121.24,192.62,98.78,234,121.18,91.38,63.31,136.74,121.9,145.28,169.4,145.28,169.4"/><path class="cls-12" d="M970.36,98.22s149.77,90.24,188.79,109,152,88.49,195.08,112.64,195,108.77,221.93,126.61,114.38,67.22,114.38,67.22"/><line class="cls-13" x1="970.36" y1="99.53" x2="972.75" y2="100.91"/><line class="cls-14" x1="977.55" y1="103.68" x2="1733.31" y2="540.02"/><line class="cls-13" x1="1735.71" y1="541.4" x2="1738.09" y2="542.78"/><line class="cls-13" x1="970.36" y1="205.03" x2="972.75" y2="206.41"/><line class="cls-14" x1="977.55" y1="209.18" x2="1733.31" y2="645.52"/><line class="cls-13" x1="1735.71" y1="646.9" x2="1738.09" y2="648.28"/><polygon class="cls-15" points="1000.94 95.33 970.37 77.68 970.37 73.91 1000.94 91.56 1000.94 95.33"/><polygon class="cls-8" points="1078.62 144.89 1040.82 123.06 1040.82 119.29 1078.62 141.12 1078.62 144.89"/><polygon class="cls-15" points="1117.96 167.6 1080.15 145.77 1080.15 143.32 1117.96 165.15 1117.96 167.6"/><polygon class="cls-15" points="1157.73 189.34 1119.92 167.51 1119.92 159.88 1157.73 181.71 1157.73 189.34"/><polygon class="cls-15" points="1196.95 204.73 1159.14 182.9 1159.14 153.51 1196.95 175.34 1196.95 204.73"/><polygon class="cls-8" points="1235.96 209.66 1198.15 187.84 1198.15 176.03 1235.96 197.86 1235.96 209.66"/><polygon class="cls-8" points="1275.62 238.84 1237.81 217.01 1237.81 209.48 1275.62 231.31 1275.62 238.84"/><polygon class="cls-8" points="1315.06 263.38 1277.26 241.55 1277.26 238.37 1315.06 260.19 1315.06 263.38"/><polygon class="cls-15" points="1354.43 286.94 1316.63 265.11 1316.63 262.52 1354.43 284.35 1354.43 286.94"/><polygon class="cls-8" points="1393.88 314.66 1356.07 292.83 1356.07 285.29 1393.88 307.12 1393.88 314.66"/><polygon class="cls-15" points="1433.1 337.3 1395.29 315.47 1395.29 307.94 1433.1 329.77 1433.1 337.3"/><polygon class="cls-8" points="1472.98 365.6 1435.18 343.77 1435.18 330.96 1472.98 352.79 1472.98 365.6"/><polygon class="cls-8" points="1511.99 412.24 1474.18 390.41 1474.18 365.04 1511.99 386.87 1511.99 412.24"/><polygon class="cls-8" points="1551.43 543.02 1513.62 521.2 1513.62 411.93 1551.43 433.75 1551.43 543.02"/><polygon class="cls-8" points="1590.88 595.44 1553.07 573.61 1553.07 543.97 1590.88 565.8 1590.88 595.44"/><polygon class="cls-8" points="1039.18 120.23 1001.93 98.72 1001.93 93.07 1039.18 114.58 1039.18 120.23"/><polygon class="cls-15" points="999.41 433.14 970.37 416.37 970.37 393.01 999.41 409.78 999.41 433.14"/><polygon class="cls-8" points="1038.92 455.96 1001.48 434.34 1001.48 412.4 1038.92 434.02 1038.92 455.96"/><polygon class="cls-8" points="1078.48 478.79 1041.03 457.18 1041.03 446.21 1078.48 467.82 1078.48 478.79"/><polygon class="cls-15" points="1118.07 501.65 1080.62 480.03 1080.62 467.22 1118.07 488.84 1118.07 501.65"/><polygon class="cls-15" points="1157.36 524.34 1119.92 502.72 1119.92 474.17 1157.36 495.79 1157.36 524.34"/><polygon class="cls-15" points="1196.81 547.11 1159.36 525.49 1159.36 483.71 1196.81 505.33 1196.81 547.11"/><polygon class="cls-8" points="1235.67 569.55 1198.22 547.93 1198.22 513.01 1235.67 534.63 1235.67 569.55"/><polygon class="cls-8" points="1274.96 592.23 1237.52 570.62 1237.52 548.76 1274.96 570.38 1274.96 592.23"/><polygon class="cls-8" points="1314.41 615.01 1276.96 593.39 1276.96 574.38 1314.41 596 1314.41 615.01"/><polygon class="cls-15" points="1354.14 637.95 1316.7 616.33 1316.7 607.54 1354.14 629.16 1354.14 637.95"/><polygon class="cls-8" points="1393.88 660.89 1356.43 639.27 1356.43 628.35 1393.88 649.96 1393.88 660.89"/><polygon class="cls-15" points="1433.17 683.58 1395.73 661.96 1395.73 633.24 1433.17 654.86 1433.17 683.58"/><polygon class="cls-8" points="1472.77 706.43 1435.32 684.82 1435.32 659.45 1472.77 681.06 1472.77 706.43"/><polygon class="cls-8" points="1512.21 729.21 1474.77 707.59 1474.77 677.36 1512.21 698.98 1512.21 729.21"/><polygon class="cls-8" points="1551.21 751.73 1513.77 730.11 1513.77 639.6 1551.21 661.21 1551.21 751.73"/><polygon class="cls-8" points="1591.31 774.88 1553.87 753.26 1553.87 690.63 1591.31 712.25 1591.31 774.88"/><polygon class="cls-15" points="1631.2 797.9 1593.75 776.29 1593.75 750.92 1631.2 772.53 1631.2 797.9"/><polygon class="cls-15" points="1670.2 820.42 1632.76 798.81 1632.76 780.64 1670.2 802.25 1670.2 820.42"/><polygon class="cls-8" points="1709.21 842.94 1671.76 821.33 1671.76 816.22 1709.21 837.84 1709.21 842.94"/><path class="cls-16" d="M970.36,379.31,1375,612.93s83.48,51.21,111.1,69.41,73,9.73,203.79,102.59"/><path class="cls-17" d="M970.36,374.67s375,219.72,429,253.25,94,56.84,94,56.84S1540,704.93,1558,713.92s75.82,43.4,94.44,54.53,37.48,21.63,37.48,21.63"/><polygon class="cls-9" points="1831.73 913.68 1744.08 863.08 1744.08 414.35 1831.73 464.96 1831.73 913.68"/><polygon class="cls-18" points="1818.9 478.44 1755.47 441.82 1755.47 436.8 1818.9 473.42 1818.9 478.44"/><polygon class="cls-18" points="1818.9 532.33 1755.47 495.7 1755.47 490.68 1818.9 527.3 1818.9 532.33"/><polygon class="cls-18" points="1818.9 591.94 1755.47 555.32 1755.47 550.3 1818.9 586.92 1818.9 591.94"/><polygon class="cls-18" points="1818.9 640.09 1755.47 603.47 1755.47 598.45 1818.9 635.07 1818.9 640.09"/><polygon class="cls-18" points="1818.9 697.45 1755.47 660.83 1755.47 655.8 1818.9 692.42 1818.9 697.45"/><polygon class="cls-18" points="1818.9 747.85 1755.47 711.23 1755.47 706.21 1818.9 742.83 1818.9 747.85"/><polygon class="cls-18" points="1818.9 804.25 1755.47 767.63 1755.47 762.6 1818.9 799.22 1818.9 804.25"/><polygon class="cls-18" points="1818.9 854.65 1755.47 818.03 1755.47 813.01 1818.9 849.63 1818.9 854.65"/><polygon class="cls-18" points="1091.06 12.51 1054.5 -8.6 1054.5 -17.64 1091.06 3.46 1091.06 12.51"/><polygon class="cls-8" points="1133.13 36.8 1096.57 15.69 1096.57 6.64 1133.13 27.75 1133.13 36.8"/><polygon class="cls-18" points="1175.2 61.08 1138.64 39.98 1138.64 30.93 1175.2 52.04 1175.2 61.08"/><polygon class="cls-18" points="1217.27 85.37 1180.71 64.27 1180.71 55.22 1217.27 76.33 1217.27 85.37"/><polygon class="cls-18" points="1259.34 109.66 1222.78 88.55 1222.78 79.51 1259.34 100.62 1259.34 109.66"/><polygon class="cls-18" points="1301.4 133.95 1264.85 112.84 1264.85 103.8 1301.4 124.91 1301.4 133.95"/><polygon class="cls-8" points="1343.47 158.24 1306.92 137.13 1306.92 128.09 1343.47 149.19 1343.47 158.24"/><polygon class="cls-18" points="1385.54 182.53 1348.98 161.42 1348.98 152.38 1385.54 173.48 1385.54 182.53"/><polygon class="cls-18" points="1427.61 206.81 1391.05 185.71 1391.05 176.66 1427.61 197.77 1427.61 206.81"/><polygon class="cls-8" points="1469.68 231.1 1433.12 210 1433.12 200.95 1469.68 222.06 1469.68 231.1"/><path class="cls-19" d="M954.33-102.61,1844,411V943.58L954.33,429.93V-102.61m0-9a9,9,0,0,0-4.5,1.21,9,9,0,0,0-4.5,7.79V429.93a9,9,0,0,0,4.5,7.8L1839.5,951.38a9,9,0,0,0,13.5-7.8V411a9,9,0,0,0-4.5-7.79L958.83-110.4a9,9,0,0,0-4.5-1.21Z"/><g class="cls-20"><polygon class="cls-21" points="567.85 699.56 440.03 773.75 493.49 804.62 621.31 730.42 567.85 699.56"/><path d="M622,731.37a2.82,2.82,0,0,0-.39-.67,1.44,1.44,0,0,0-.33-.28l-127.82,74.2a1.41,1.41,0,0,1,.33.28,2.74,2.74,0,0,1,.39.66c.88,2,.81,6.19-.18,6.77l127.82-74.2C622.84,737.55,622.91,733.37,622,731.37Z"/><path d="M557.49,687.26c-2.38-5.39-2.84-10.58-1.16-14.13l34.76-76.89-127.82,74.2-34.76,76.89c-1.68,3.55-1.22,8.74,1.14,14.08a30.32,30.32,0,0,0,4.88,7.74,21.91,21.91,0,0,0,5.5,4.6l127.82-74.19a22.17,22.17,0,0,1-5.5-4.61A29.94,29.94,0,0,1,557.49,687.26Z"/><path d="M493.49,804.62,440,773.75c-4.3-2.48-8-6.94-10.36-12.3s-2.84-10.56-1.16-14.12l34.76-76.89.24-1.37.21-74.87a7.1,7.1,0,0,0-3.33-5.76c-1.79-1-3.22-.22-3.23,2L457,664.59l-34.64,76.28c-2.4,5.47-1.71,13.57,1.86,21.67s9.39,15.17,15.84,18.89l53.46,30.87C495.26,813.33,495.28,805.65,493.49,804.62Z"/><path class="cls-22" d="M591,517.45a7.69,7.69,0,0,0-1.23-1.94,6.27,6.27,0,0,0-1.52-1.27A2.25,2.25,0,0,0,586,514l-127.82,74.2a2.21,2.21,0,0,1,2.26.23,6.13,6.13,0,0,1,1.53,1.27,7.63,7.63,0,0,1,1.23,1.93,6.25,6.25,0,0,1,.57,2.56l-.21,74.87-.24,1.37,127.82-74.2.24-1.37.22-74.86A6.35,6.35,0,0,0,591,517.45Z"/></g><g id="_1" data-name="1"><polygon points="257.99 827.64 247.76 821.7 247.61 422.04 257.84 427.98 257.99 827.64"/><polygon points="257.84 427.98 247.61 422.04 779.58 114.9 789.81 120.85 257.84 427.98"/><polygon class="cls-23" points="789.81 120.85 789.96 520.51 257.99 827.64 257.84 427.98 789.81 120.85"/><polygon class="cls-24" points="260.17 429.83 787.39 125.43 787.32 471.65 260.09 776.04 260.17 429.83"/></g><path class="cls-25" d="M1762.06,975.65,978.45,523.24c-7.11-4.11-6.22-11.29,2-16l28-16.2c8.22-4.75,20.65-5.26,27.77-1.15l783.61,452.41c7.11,4.11,6.22,11.29-2,16l-28.05,16.2C1781.61,979.25,1769.18,979.76,1762.06,975.65Z"/><polygon class="cls-26" points="50.74 932.63 50.74 958.83 279.82 1087.51 279.82 1063.62 50.74 932.63"/><path class="cls-27" d="M841,891.5s-22.28,5-26.58,21.55S846,1145.87,841,1188.26s-15.28,54.85-21.29,72,21.84,44.1,55.78,45.15,40.09-20.84,40.09-20.84-4.16-58.21,11.65-94.13,30.9-86.23,20.12-118.56S944.48,891.5,841,891.5Z"/><path class="cls-27" d="M703.05,996.41,681.51,984s5,84.33,3.57,114.49,30.18,155.19,30.18,176.75a195,195,0,0,1-5,41.68s23.72,42.46,55.33,40.27,34.48-3.84,36.72-5.14-8.08-97.85,0-134.3c11.78-53.17-11.86-142.27-23.78-166S703.05,996.41,703.05,996.41Z"/><path d="M942.81,1368.14a15.2,15.2,0,0,1-7.44-15.34l49.87-344.24c4.39-30.28,29-40.31,57.92-23.61l139.55,80.57c28.93,16.71,53.53,55.14,57.92,90.49L1289,1545.32a12.24,12.24,0,0,1-18.27,12.11,15.49,15.49,0,0,1-8-11.69L1216,1149.42c-2.94-25-20.31-52.23-40.79-64.06l-125.81-72.63c-20.39-11.77-37.71-4.67-40.75,16.71l-46.93,330.2a12.25,12.25,0,0,1-18.25,8.88Z"/><path class="cls-28" d="M672.72,1140.07C655.64,1130.2,944.56,983.28,958.28,972c5.2-4.29,17.91-10.14,25.11-5.81,21.59,13,263.31,146,291.74,168.43s5.47,48.2-9.27,53-269.52,194.53-295.72,143C931.79,1255.19,734.82,1175.94,672.72,1140.07Z"/><path class="cls-29" d="M1138.49,1020.12s-87.66-71.14-148-93.41-138-48.15-163.11-35.21-23.15,46.83-6.54,62.58,219.23,168.8,219.23,168.8,77.61,77.6,111.38,71.85,49.58-33.77,58.92-73.29,0-94.86,0-94.86Z"/><path class="cls-29" d="M1042.21,1055.33C1040,1054,832.39,928.15,730.35,949s-15.17,101.32-6.51,109.22S882,1155.93,897.78,1180.36s86.94,68.26,126.46,68.26,92.69-27.3,106.35-38.08,33.65-19.38,33.65-19.38S1064.74,1068.34,1042.21,1055.33Z"/><path class="cls-30" d="M968.25,972.66c4.33,39.63,22.3,71.88,15.08,97.07s-16.37,47.33,33,61.78a74.8,74.8,0,0,0,17.33,2.4c51.18,1.92,127.08-38.19,151.46-62.73,27.44-27.44,25.19-44.6,25.19-44.6s30.81-100.62,29.53-122.92c-1.44-22.14-1.44-37.38-1.44-37.38s51.34-124.19-2.9-163c-13.63-9.63-26.15-12.84-36.9-12.84-20.06,0-33.56,11.06-34.36,11.87l-5.71-32.86-99.15,25.92s6.67,48.51-4.08,62.79a27.26,27.26,0,0,1-6.69,5.78c-15.72,10.42-48.33,20-63.89,43.64a41.43,41.43,0,0,0-4.33,8.5C966.8,851.2,963.91,933.19,968.25,972.66Z"/><path class="cls-31" d="M968.25,972.66c4.33,39.63,22.3,71.88,15.08,97.07s-16.37,47.33,33,61.78a74.8,74.8,0,0,0,17.33,2.4c6.26-20.7,29.2-98.52,27.92-117.61-1.45-22.3-18.47-31.35-18.47-31.35s43.16-120-11.23-158.78C1018.45,816.54,963.91,933.19,968.25,972.66Z"/><path class="cls-32" d="M1180.06,730.94c-13.17,59.42-88.27,45.59-101.92,37.68-13.34-7.7-28.77-4.86-29.48-4.7a27,27,0,0,0,6.69-5.78c10.78-14.36,4.08-62.79,4.08-62.79l99.15-25.92,5.71,32.86S1182.71,719,1180.06,730.94Z"/><path class="cls-32" d="M1034.66,548s-15.81,30.18-13.29,44.55,6.83,5.39,2.51,16.88-7.18,7.55-4.67,29.47-7.9,26.58,1.8,34.85,38.42,21.57,38.42,21.57,66.13,3.58,88-13,50.29-45.27,44.9-90.54-45.62-66.11-72.93-69S1064.48,506.35,1034.66,548Z"/><path d="M1069.55,513.9c-2,.83-26.94.72-32.69,15.81s-11.58,21.52-15.18,29.06,16.62,69.74,23.44,79.44-2.51,16.52,2.16,16.88S1061.65,645,1061.65,645s5.87,30.09,5.87,36.56,24.36,31.89,48.43,37.63,46.58-17,46.58-17,78.39-55.2,28.77-140.44C1161.31,510.28,1109.79,497,1069.55,513.9Z"/><path class="cls-32" d="M1051.54,652.93s15.82-17.24,23.72-7.9,12.21,23.36,1.44,30.54-19.4,8.27-23.71,3.95,5.37-3.24,9-10.06S1051.54,652.93,1051.54,652.93Z"/><path class="cls-33" d="M1181.23,718.45l-16.94-16.16s8.26,27.26-57.45,35.69c-29.1,3.73-38.93-9.59-45.56-4.4s-21.72,35.48-21.72,35.48,48.66,13,85,7.71S1185.7,748.84,1181.23,718.45Z"/><path class="cls-34" d="M1375.63,916.88c-1.56,3.77-5.53,6.18-13.7,9.49-14.74,6-24.49,50.2-28.43,80.26-5.81,44.25-18.15,114-23.13,141.59-.51,2.82-46.94,59.92-111.4,97.73-70.53,41.37-159.74,63.5-162.43,60.36l32-231.33s3.87-2.5,10.68-7l22.55,7Z"/><path class="cls-35" d="M1375.63,916.88s-40.45,53-101.92,96.72C1201.37,1065,1101.8,1075,1101.8,1075l-46.65-14.37s104.31-31.25,181.52-76.8c57.92-34.17,92.33-81.3,92.33-81.3,11.87-14.89,44.51-11.75,46.63,1.56C1376.57,910,1376.87,913.87,1375.63,916.88Z"/><path class="cls-36" d="M1101.79,1062.16c2.11,13.3,1.06,16.32-13.69,22.31s-24.49,50.21-28.43,80.27c-5.82,44.24-18.15,114-23.13,141.57-1.07,5.92-7.31,5.81-12.46-.2l-10.7-12.46c-3.38-4-5.24-9.31-4.57-13.22,6.13-35.87,35.71-206.5,46.34-219.82C1067,1045.72,1099.69,1048.86,1101.79,1062.16Z"/><path class="cls-32" d="M726.41,803.13l-18.29-46.07-23.58-16.5S676,751.33,687,760.2l8.67,11.88L660.65,751.3l-41.35-5s-28.77,12.14-18.24,25.56,33.45,34.78,33.45,34.78L712.81,835Z"/><path class="cls-30" d="M855.81,859.38s-101.19-55.61-125-69.15-32.63,33.11-32.63,33.11,20.12,56.59,62.91,79.61,70.47,60.11,101.67,41.32S855.81,859.38,855.81,859.38Z"/><path class="cls-30" d="M1057.5,875.44s6.13-27.65-9.19-44.8-35.26-23.29-56.57-15.87-90,27.49-90,27.49-73.46-19.21-104.41,47.79c-20.93,45.32,61.39,64.16,61.39,64.16s150.17-11.28,170.78-24.88S1057.5,875.44,1057.5,875.44Z"/><path class="cls-37" d="M765.88,169.76a.66.66,0,0,0-.64,0L500.8,322.44a.62.62,0,0,0-.32.55V526.25a.62.62,0,0,0,.32.55.61.61,0,0,0,.31.09.62.62,0,0,0,.32-.09L765.88,374.13a.67.67,0,0,0,.32-.55V170.31A.64.64,0,0,0,765.88,169.76Zm-1,127.21-20.76,12V285.13l20.76-12ZM501.75,399.78l20.77-12v23.83l-20.77,12Zm219.1-102.66-20.77,12V285.27l20.77-12Zm1.27-24.57,20.77-12v23.83l-20.77,12Zm-23.31,37.29-20.76,12V298l20.76-12ZM632.7,348l-20.76,12V336.17l20.76-12ZM634,323.44l20.77-12v23.84l-20.77,12Zm-23.3,37.29-20.77,12V348.89l20.77-12Zm0,1.47V386L589.9,398V374.19Zm1.27-.74,20.76-12v23.84l-20.76,12Zm22-12.72,20.77-12v23.83l-20.77,12ZM656,336l20.77-12v23.83l-20.77,12Zm0-1.47V310.72l20.77-12v23.83Zm22-38V272.7l20.76-12v23.83Zm-1.27.73-20.77,12V285.42l20.77-12Zm-22,12.73L634,322V298.14l20.77-12Zm-22,12.72-20.76,12V310.87l20.76-12Zm-22,12.72-20.77,12V323.59l20.77-12Zm-22,12.73-20.77,12V336.31l20.77-12Zm0,1.46v23.83l-20.77,12V361.61Zm-22,36.56-20.77,12V374.33l20.77-12Zm-22,12.72-20.76,12V387.06l20.76-12Zm-42.8,26.18,20.77-12v23.83l-20.77,12Zm22-12.72,20.76-12V424.2l-20.76,12Zm22-12.73,20.77-12v23.84l-20.77,12Zm22-12.72,20.77-12v23.83l-20.77,12Zm20.77,13.31v23.83l-20.77,12V412.21Zm1.27-.73,20.77-12v23.83l-20.77,12Zm22-12.73,20.76-12v23.84l-20.76,12ZM634,374l20.77-12v23.83l-20.77,12Zm22-12.72,20.77-12v23.83l-20.77,12Zm22-12.73,20.76-12v23.84l-20.76,12Zm0-1.46V323.29l20.76-12v23.83Zm22-36.56,20.77-12v23.84l-20.77,12Zm22-12.72,20.77-12v23.83l-20.77,12Zm42.8-26.18-20.76,12V259.83l20.76-12Zm0-25.3-20.76,12V234.53l20.76-12Zm-22,12.72-20.77,12V247.25l20.77-12Zm-22,12.73-20.77,12V260l20.77-12Zm-20.77-13.31V234.67l20.77-12v23.84Zm-1.27.73-20.76,12V247.4l20.76-12Zm-22,12.72L656,284V260.12l20.77-12Zm-22,12.73-20.77,12V272.84l20.77-12Zm-22,12.72-20.76,12V285.57l20.76-12Zm-22,12.72-20.77,12V298.29l20.77-12Zm-22,12.73-20.77,12V311l20.77-12Zm-22,12.72-20.77,12V323.74l20.77-12Zm0,1.47v23.83l-20.77,12V349Zm-22,36.55-20.76,12V361.76l20.76-12Zm-22,12.73-20.77,12V374.48l20.77-12Zm-20.77,64.05,20.77-12v23.83l-20.77,12Zm22-12.72,20.76-12V449.5l-20.76,12Zm22-12.73,20.77-12v23.84l-20.77,12Zm20.77,13.31v23.84l-20.77,12V450.23Zm1.27-.73,20.77-12v23.83l-20.77,12Zm22-12.72,20.77-12v23.83l-20.77,12Zm22-12.73,20.76-12v23.84l-20.76,12Zm22-12.72,20.77-12v23.83l-20.77,12Zm22-12.72,20.77-12v23.83l-20.77,12Zm22-12.73,20.76-12v23.84l-20.76,12Zm22-12.72,20.77-12V373l-20.77,12Zm0-1.47V335.87l20.77-12v23.83Zm22-36.55,20.77-12V335l-20.77,12Zm22-12.72,20.76-12v23.83l-20.76,12Zm20.76-89.36-20.76,12V209.23l20.76-12Zm-22,12.72-20.77,12V222l20.77-12Zm-20.77-13.31V196.32a1.13,1.13,0,0,0,0-.18l20.8-12V208.5Zm-1.27.74-20.77,12V209.05a.52.52,0,0,0,0-.18l20.8-12Zm-22,12.72-20.76,12V221.77a.58.58,0,0,0,0-.18l20.8-12Zm-22,12.72-20.77,12V234.49a.58.58,0,0,0,0-.18l20.81-12Zm-22,12.73-20.77,12V247.22a.84.84,0,0,0,0-.18l20.8-12Zm-22,12.72-20.76,12V259.94a.58.58,0,0,0,0-.18l20.8-12Zm-22,12.72-20.77,12V272.66a.58.58,0,0,0,0-.18l20.81-12Zm-22,12.73-20.77,12V285.38a.86.86,0,0,0,0-.17l20.8-12Zm-22,12.72-20.77,12V298.11a.52.52,0,0,0,0-.18l20.8-12Zm-22,12.72-20.76,12V310.83a.58.58,0,0,0,0-.18l20.8-12Zm0,1.47V348.3l-20.76,12V336.46Zm-22,36.56-20.77,12V349.18l20.77-12ZM501.75,475.68l20.77-12v23.83l-20.77,12Zm22-12.72,20.76-12V474.8l-20.76,12Zm20.76,13.31v23.94a.54.54,0,0,0,.05.21l-20.81,12V488.25Zm1.27-.74,20.77-12v23.95a.65.65,0,0,0,0,.2l-20.81,12Zm22-12.72,20.77-12v23.94a.65.65,0,0,0,0,.21l-20.81,12Zm22-12.72,20.77-12V462a.52.52,0,0,0,0,.21l-20.81,12Zm22-12.73,20.76-12v23.95a.65.65,0,0,0,0,.2l-20.8,12Zm22-12.72,20.77-12v24a.65.65,0,0,0,0,.2l-20.81,12Zm22-12.72,20.77-12v23.94a.71.71,0,0,0,0,.21l-20.81,12Zm22-12.73,20.76-12v23.95a.54.54,0,0,0,.05.21l-20.81,12Zm22-12.72,20.77-12v23.95a.65.65,0,0,0,0,.2l-20.81,12Zm22-12.72,20.77-12V385.7a.71.71,0,0,0,0,.21l-20.81,12Zm0-1.47V348.45l20.77-12v23.83Zm22-36.56,20.76-12v23.83l-20.76,12Zm20.76-140-20.76,12V183.6a.58.58,0,0,0,0-.18l20.8-12Zm-242.4,115.6v24.36l-20.77,12V323.36ZM501.75,501l20.77-12v23.94a.65.65,0,0,0,0,.21l-20.81,12ZM744.16,385.2V361l20.76-12v24.18Z"/><path class="cls-38" d="M501.75,347.72s64.88-23.25,120.59-23.84,101.94,1.87,142.58-25.44"/><text class="cls-39" transform="matrix(0.88, -0.51, 0, 1, 279.82, 491.4)">Starting Value:<tspan x="0" y="38.06">28760</tspan><tspan x="0" y="152.25">Final Value:</tspan><tspan x="0" y="190.32">26622</tspan></text><polyline class="cls-40" points="123.69 422.08 123.69 720.16 230.77 658.33"/><polygon class="cls-41" points="681.46 119.82 53.49 482.38 53.49 384.99 681.46 22.43 681.46 119.82"/><text class="cls-42" transform="matrix(0.89, -0.51, 0, 1, 82.81, 430.75)">PERCENTAGE DECREASE: 7.43%</text><ellipse class="cls-43" cx="228.63" cy="658.64" rx="19.3" ry="11.14" transform="translate(-455.24 523.02) rotate(-59.64)"/></g></g></svg>